<?xml version="1.0" encoding="UTF-8" standalone="no"?>
<svg width="214px" height="80px" viewBox="0 0 214 80" version="1.1" xmlns="http://www.w3.org/2000/svg" xmlns:xlink="http://www.w3.org/1999/xlink">
    <!-- Generator: Sketch 3.8.2 (29753) - http://www.bohemiancoding.com/sketch -->
    <title>NU - Logo - UK | Malaysia | Singapore - Positive (RGB)</title>
    <desc>Created with Sketch.</desc>
    <defs></defs>
    <g id="Page-1" stroke="none" stroke-width="1" fill="none" fill-rule="evenodd">
        <g id="NU---Logo---UK-|-Malaysia-|-Singapore---Positive-(RGB)">
            <g id="Group" fill="#003A65">
                <g transform="translate(62.374408, 0.000000)" id="Shape">
                    <path d="M32.7592417,23.2255924 C27.7388626,23.2255924 24.4933649,19.6758294 24.4933649,14.3511848 C24.4933649,9.17867299 27.9924171,5.42606635 33.0127962,5.42606635 C37.7796209,5.42606635 40.771564,8.82369668 40.771564,14.4526066 L40.771564,15.1625592 L29.5137441,15.1625592 C29.5137441,18.1037915 30.7815166,19.7265403 33.0127962,19.7265403 C34.5848341,19.7265403 35.7511848,18.8137441 36.2075829,17.1909953 L40.7208531,17.5966825 C39.6052133,21.1971564 36.7146919,23.2255924 32.7592417,23.2255924 L32.7592417,23.2255924 Z M35.9033175,12.4241706 C35.8526066,9.99004739 34.7369668,8.67156398 32.7085308,8.67156398 C30.8829384,8.67156398 29.6658768,10.0407583 29.5137441,12.4241706 L35.9033175,12.4241706 L35.9033175,12.4241706 Z"></path>
                    <path d="M143.511848,23.2255924 C138.491469,23.2255924 135.245972,19.6758294 135.245972,14.3511848 C135.245972,9.17867299 138.745024,5.42606635 143.765403,5.42606635 C148.532227,5.42606635 151.524171,8.82369668 151.524171,14.4526066 L151.524171,15.1625592 L140.266351,15.1625592 C140.266351,18.1037915 141.534123,19.7265403 143.765403,19.7265403 C145.337441,19.7265403 146.503791,18.8137441 146.96019,17.1909953 L151.47346,17.5966825 C150.307109,21.1971564 147.467299,23.2255924 143.511848,23.2255924 L143.511848,23.2255924 Z M146.605213,12.4241706 C146.554502,9.99004739 145.438863,8.67156398 143.410427,8.67156398 C141.584834,8.67156398 140.367773,10.0407583 140.21564,12.4241706 L146.605213,12.4241706 L146.605213,12.4241706 Z"></path>
                    <polygon points="41.2279621 5.88246445 46.5018957 5.88246445 48.936019 15.77109 51.2687204 5.88246445 55.6298578 5.88246445 58.063981 15.9232227 61.0052133 5.88246445 64.9606635 5.88246445 60.0924171 22.7184834 55.6805687 22.7184834 52.8914692 11.7649289 50.1023697 22.7184834 46.0454976 22.7184834"></polygon>
                    <path d="M73.885782,8.87440758 C71.7559242,8.87440758 70.2853081,10.7 70.2345972,14.3004739 C70.1838863,17.9009479 71.6545024,19.7772512 73.7336493,19.7772512 C75.3563981,19.7772512 76.8777251,18.5094787 77.1819905,16.32891 L81.3909953,16.836019 C80.8331754,20.7407583 77.7398104,23.2255924 73.4293839,23.2255924 C68.4597156,23.2255924 65.0113744,19.6758294 65.0620853,14.3511848 C65.1635071,8.97582938 68.763981,5.42606635 74.0886256,5.42606635 C78.1454976,5.42606635 80.9345972,7.80947867 81.3909953,11.8156398 L77.0298578,12.2720379 C76.7763033,10.0914692 75.3563981,8.87440758 73.885782,8.87440758 L73.885782,8.87440758 Z"></path>
                    <path d="M93.7137441,20.0308057 C92.6488152,22.0592417 90.7725118,23.1748815 88.4398104,23.1748815 C84.9407583,23.1748815 82.8616114,21.1464455 82.8616114,18.0530806 C82.8616114,14.0976303 86.4620853,11.9677725 93.6630332,11.9170616 L93.6630332,11.207109 C93.6630332,9.48293839 92.750237,8.62085308 90.9753555,8.62085308 C88.9976303,8.62085308 87.8819905,9.43222749 87.628436,11.0042654 L83.2672986,10.4971564 C84.0279621,7.20094787 86.7156398,5.47677725 91.22891,5.47677725 C96.3,5.47677725 98.2270142,7.45450237 98.2270142,12.0691943 L98.2270142,19.5236967 C98.2270142,20.892891 98.328436,22.0085308 98.6834123,22.7691943 L94.0687204,22.7691943 C93.8658768,21.9578199 93.764455,21.0450237 93.7137441,20.0308057 L93.7137441,20.0308057 Z M87.7298578,17.7488152 C87.7298578,19.1180095 88.5919431,19.9293839 90.163981,19.9293839 C92.1417062,19.9293839 93.6123223,18.3066351 93.6123223,15.9739336 L93.6123223,14.4526066 C89.7582938,14.5540284 87.7298578,15.7203791 87.7298578,17.7488152 L87.7298578,17.7488152 Z"></path>
                    <path d="M104.008057,17.4952607 C104.413744,19.0165877 105.833649,19.9293839 107.912796,19.9293839 C109.687678,19.9293839 110.701896,19.1180095 110.701896,18.1037915 C110.701896,16.6331754 109.281991,16.6838863 106.797156,16.1767773 C102.790995,15.3654028 100.81327,13.9962085 100.81327,10.9535545 C100.81327,7.80947867 103.348815,5.42606635 107.608531,5.42606635 C111.056872,5.42606635 113.389573,6.94739336 114.403791,9.83791469 L110.651185,10.5478673 C110.093365,9.17867299 109.079147,8.67156398 107.456398,8.67156398 C105.88436,8.67156398 105.072986,9.28009479 105.072986,10.3450237 C105.072986,11.8156398 106.695735,11.7649289 109.687678,12.4241706 C113.338863,13.235545 115.113744,14.5033175 115.113744,17.4952607 C115.113744,20.7914692 112.324645,23.1748815 107.55782,23.1748815 C103.703791,23.1748815 100.965403,21.2478673 100.154028,18.1037915 L104.008057,17.4952607 L104.008057,17.4952607 Z"></path>
                    <polygon points="128.247867 0 133.065403 0 133.065403 22.7691943 128.247867 22.7691943"></polygon>
                    <path d="M29.7165877,36.4611374 C30.4265403,35.2947867 31.2379147,34.4327014 32.2014218,33.8241706 C33.1649289,33.2663507 34.2298578,32.9620853 35.3962085,32.9620853 C36.4104265,32.9620853 37.2725118,33.1649289 37.9824645,33.5706161 C38.6924171,33.9763033 39.250237,34.635545 39.6559242,35.4976303 C40.0616114,36.3597156 40.264455,37.3739336 40.264455,38.4388626 L40.264455,46.1469194 C40.264455,46.7047393 40.3658768,47.1104265 40.6701422,47.363981 C40.9236967,47.6175355 41.3293839,47.7189573 41.9379147,47.7189573 L43.0535545,47.7189573 L43.0535545,48.936019 L34.8383886,48.936019 L34.8383886,47.7189573 L35.5990521,47.7189573 C36.3090047,47.7189573 36.8161137,47.6175355 37.1203791,47.363981 C37.4246445,47.1104265 37.5767773,46.8061611 37.5767773,46.2990521 L37.5767773,39.6052133 C37.5767773,38.1345972 37.3739336,37.0696682 36.9175355,36.3597156 C36.3090047,35.3454976 35.3454976,34.8383886 34.128436,34.8383886 C32.8606635,34.8383886 31.8464455,35.3454976 31.0350711,36.3597156 C30.2236967,37.3739336 29.7672986,38.6924171 29.7672986,40.3151659 L29.7672986,46.1469194 C29.7672986,46.7047393 29.9194313,47.1104265 30.1729858,47.363981 C30.4265403,47.6175355 30.8829384,47.7189573 31.4407583,47.7189573 L32.5056872,47.7189573 L32.5056872,48.936019 L24.1383886,48.936019 L24.1383886,47.7189573 L25.2033175,47.7189573 C25.7611374,47.7189573 26.1668246,47.6175355 26.4203791,47.363981 C26.7246445,47.1611374 26.8260664,46.856872 26.8260664,46.5018957 L26.8260664,36.3597156 C26.8260664,35.7004739 26.6232227,35.1933649 26.2682464,34.8383886 C25.9132701,34.4834123 25.4061611,34.3312796 24.7469194,34.3312796 L23.935545,34.3312796 L23.935545,33.2156398 L29.5137441,32.9113744 L29.7165877,36.4611374 L29.7165877,36.4611374 Z"></path>
                    <path d="M43.3578199,33.3170616 L49.6459716,33.114218 L49.6459716,46.6033175 C49.6459716,46.9582938 49.7473934,47.2118483 49.8995261,47.363981 C50.1530806,47.5668246 50.457346,47.7189573 50.8630332,47.7189573 L52.6379147,47.7189573 L52.6379147,48.936019 L43.6620853,48.936019 L43.6620853,47.7189573 L45.335545,47.7189573 C45.842654,47.7189573 46.1976303,47.6175355 46.4004739,47.363981 C46.6033175,47.1104265 46.7554502,46.7554502 46.7554502,46.2990521 L46.7554502,36.4104265 C46.7554502,35.8018957 46.5526066,35.2947867 46.1976303,34.9905213 C45.842654,34.6862559 45.2848341,34.5341232 44.6255924,34.5341232 L43.307109,34.5341232 L43.307109,33.3170616 L43.3578199,33.3170616 Z M47.7696682,26.7753555 C48.2767773,26.7753555 48.7331754,26.9781991 49.0881517,27.3331754 C49.443128,27.7388626 49.6459716,28.1445498 49.6459716,28.6516588 C49.6459716,29.1587678 49.443128,29.6151659 49.0881517,29.9701422 C48.7331754,30.3251185 48.2767773,30.5279621 47.7696682,30.5279621 C47.2625592,30.5279621 46.8061611,30.3251185 46.4511848,29.9701422 C46.0962085,29.6151659 45.8933649,29.1587678 45.8933649,28.6516588 C45.8933649,28.1445498 46.0962085,27.6881517 46.4511848,27.3331754 C46.856872,26.9274882 47.2625592,26.7753555 47.7696682,26.7753555 L47.7696682,26.7753555 Z"></path>
                    <path d="M112.781043,33.3170616 L119.069194,33.114218 L119.069194,46.6033175 C119.069194,46.9582938 119.170616,47.2118483 119.322749,47.363981 C119.576303,47.5668246 119.880569,47.7189573 120.286256,47.7189573 L122.061137,47.7189573 L122.061137,48.936019 L113.085308,48.936019 L113.085308,47.7189573 L114.758768,47.7189573 C115.265877,47.7189573 115.620853,47.6175355 115.823697,47.363981 C116.077251,47.1104265 116.178673,46.7554502 116.178673,46.2990521 L116.178673,36.4104265 C116.178673,35.8018957 115.975829,35.2947867 115.620853,34.9905213 C115.265877,34.6862559 114.708057,34.5341232 113.998104,34.5341232 L112.730332,34.5341232 L112.730332,33.3170616 L112.781043,33.3170616 Z M117.192891,26.7753555 C117.7,26.7753555 118.156398,26.9781991 118.511374,27.3331754 C118.917062,27.7388626 119.069194,28.1445498 119.069194,28.6516588 C119.069194,29.1587678 118.866351,29.6151659 118.511374,29.9701422 C118.156398,30.3251185 117.7,30.5279621 117.192891,30.5279621 C116.685782,30.5279621 116.229384,30.3251185 115.874408,29.9701422 C115.519431,29.6151659 115.316588,29.1587678 115.316588,28.6516588 C115.316588,28.1445498 115.519431,27.6881517 115.874408,27.3331754 C116.280095,26.9274882 116.685782,26.7753555 117.192891,26.7753555 L117.192891,26.7753555 Z"></path>
                    <path d="M51.5729858,33.2663507 L59.3317536,33.2663507 L59.3317536,34.4327014 C58.3175355,34.4327014 57.6582938,34.5341232 57.3540284,34.6862559 C57.049763,34.8383886 56.9483412,35.0919431 56.9483412,35.3962085 C56.9483412,35.649763 56.9990521,35.9033175 57.1004739,36.1061611 L61.2587678,45.3862559 L65.0620853,36.4104265 C65.1127962,36.2582938 65.1635071,36.1061611 65.1635071,35.9540284 C65.1635071,35.142654 64.3521327,34.635545 62.7293839,34.4327014 L62.7293839,33.2663507 L69.2203791,33.2663507 L69.2203791,34.4327014 C68.5611374,34.4834123 68.0540284,34.6862559 67.6483412,34.9398104 C67.242654,35.2440758 66.9383886,35.5990521 66.735545,36.1061611 L60.9545024,49.443128 L60.0417062,49.443128 L53.9056872,35.7511848 C53.7028436,35.2947867 53.3985782,34.9398104 53.0943128,34.7369668 C52.7900474,34.5341232 52.2829384,34.4327014 51.5729858,34.4327014 L51.5729858,33.2663507 L51.5729858,33.2663507 Z"></path>
                    <path d="M83.064455,41.2279621 L71.7559242,41.2279621 C71.8066351,43.6113744 72.2630332,45.2848341 73.1251185,46.2990521 C74.0886256,47.4146919 75.3056872,47.9725118 76.8270142,47.9725118 C79.0582938,47.9725118 80.8331754,46.7554502 82.1516588,44.2706161 L83.2165877,44.7270142 C81.5938389,47.87109 79.2104265,49.4938389 76.1170616,49.4938389 C74.0379147,49.4938389 72.2630332,48.7331754 70.7924171,47.2118483 C69.3725118,45.6905213 68.6625592,43.7635071 68.6625592,41.3800948 C68.6625592,38.8445498 69.3725118,36.7654028 70.7924171,35.1933649 C72.2123223,33.621327 73.9364929,32.8606635 76.0156398,32.8606635 C77.5369668,32.8606635 78.8554502,33.2663507 79.97109,34.0270142 C81.0867299,34.7876777 81.8981043,35.9540284 82.4559242,37.3739336 C82.8109005,38.3374408 83.0137441,39.6559242 83.064455,41.2279621 L83.064455,41.2279621 Z M71.7559242,40.0616114 L78.7033175,40.0616114 C79.1090047,40.0616114 79.4132701,39.9094787 79.6668246,39.6559242 C79.8696682,39.4023697 80.0218009,38.8952607 80.0218009,38.236019 C80.0218009,37.0189573 79.6161137,35.9540284 78.8554502,35.0919431 C78.0947867,34.2298578 77.1819905,33.8241706 76.1170616,33.8241706 C74.9507109,33.8241706 73.9364929,34.3312796 73.1251185,35.3962085 C72.2123223,36.4104265 71.7559242,37.9824645 71.7559242,40.0616114 L71.7559242,40.0616114 Z"></path>
                    <path d="M99.7483412,43.1549763 C100.458294,45.0819905 101.218957,46.4511848 102.131754,47.1611374 C103.04455,47.9218009 104.16019,48.2767773 105.478673,48.2767773 C106.695735,48.2767773 107.659242,48.0232227 108.267773,47.4654028 C108.927014,46.9075829 109.23128,46.2483412 109.23128,45.4369668 C109.23128,44.9805687 109.129858,44.5748815 108.876303,44.2199052 C108.622749,43.8649289 108.318483,43.6113744 107.862085,43.4085308 C107.456398,43.2563981 106.340758,43.0028436 104.565877,42.6478673 C102.841706,42.292891 101.675355,41.9379147 101.016114,41.5829384 C100.356872,41.2279621 99.849763,40.7208531 99.4440758,40.0616114 C99.0890995,39.4023697 98.8862559,38.6924171 98.8862559,37.9317536 C98.8862559,36.7654028 99.2919431,35.7511848 100.052607,34.7876777 C101.066825,33.5706161 102.436019,33.0127962 104.2109,33.0127962 C105.580095,33.0127962 106.847867,33.4691943 107.963507,34.3312796 L109.079147,33.1649289 L109.738389,33.1649289 L110.194787,38.7938389 L109.079147,38.7938389 C108.572038,37.17109 107.912796,36.0047393 107.101422,35.2947867 C106.239336,34.5848341 105.225118,34.2298578 104.008057,34.2298578 C102.943128,34.2298578 102.131754,34.4834123 101.523223,35.0412322 C100.914692,35.5483412 100.610427,36.2075829 100.610427,36.9682464 C100.610427,37.6274882 100.863981,38.1853081 101.421801,38.6417062 C101.979621,39.0981043 103.04455,39.4530806 104.667299,39.7066351 C106.543602,40.0109005 107.760664,40.264455 108.318483,40.5180095 C109.23128,40.8729858 109.941232,41.3800948 110.448341,42.0393365 C110.95545,42.7492891 111.209005,43.5606635 111.209005,44.5748815 C111.209005,45.9440758 110.651185,47.1104265 109.586256,48.0739336 C108.470616,49.0374408 107.101422,49.4938389 105.427962,49.4938389 C103.855924,49.4938389 102.436019,48.9867299 101.117536,47.9725118 L99.9004739,49.3417062 L98.9876777,49.3417062 L98.6327014,43.1549763 L99.7483412,43.1549763 L99.7483412,43.1549763 Z"></path>
                    <path d="M133.673934,33.2663507 L141.229858,33.2663507 L141.229858,34.4327014 L140.519905,34.4327014 C139.860664,34.4327014 139.404265,34.5341232 139.150711,34.6862559 C138.897156,34.8383886 138.795735,35.0919431 138.795735,35.3962085 C138.795735,35.5483412 138.846445,35.7004739 138.897156,35.8018957 L143.309005,45.1834123 L146.605213,37.3739336 C146.858768,36.8161137 146.96019,36.2582938 146.96019,35.7511848 C146.96019,35.3454976 146.808057,35.0412322 146.453081,34.7876777 C146.148815,34.5848341 145.489573,34.4327014 144.526066,34.3312796 L144.526066,33.1649289 L151.017062,33.1649289 L151.017062,34.3312796 C149.8,34.4327014 148.937915,34.9905213 148.532227,36.0047393 L142.649763,49.5445498 C141.635545,51.8265403 140.672038,53.3985782 139.65782,54.2606635 C138.643602,55.1227488 137.578673,55.528436 136.412322,55.528436 C135.550237,55.528436 134.890995,55.2748815 134.383886,54.8184834 C133.876777,54.3620853 133.623223,53.8042654 133.623223,53.1450237 C133.623223,52.6379147 133.775355,52.2322275 134.079621,51.9279621 C134.383886,51.6236967 134.789573,51.4208531 135.245972,51.4208531 C135.651659,51.4208531 136.057346,51.5729858 136.3109,51.8265403 C136.615166,52.0800948 136.767299,52.4350711 136.767299,52.8407583 C136.767299,52.9421801 136.767299,53.1450237 136.716588,53.3478673 C136.665877,53.5 136.665877,53.6521327 136.665877,53.7028436 C136.665877,53.9563981 136.818009,54.1085308 137.172986,54.1085308 C137.527962,54.1085308 137.98436,53.9563981 138.440758,53.7028436 C138.897156,53.4492891 139.353555,53.0436019 139.759242,52.4350711 C140.164929,51.8265403 140.874882,50.5587678 141.8891,48.4796209 L135.955924,35.7511848 C135.753081,35.2947867 135.499526,34.9905213 135.14455,34.7876777 C134.840284,34.5848341 134.333175,34.4327014 133.724645,34.3312796 L133.724645,33.2663507 L133.673934,33.2663507 Z"></path>
                    <polygon points="2.83981043 0 9.02654028 0 17.6473934 14.0469194 17.6473934 0 22.4649289 0 22.4649289 22.7691943 17.343128 22.7691943 7.70805687 6.94739336 7.70805687 22.7691943 2.89052133 22.7691943 2.89052133 0"></polygon>
                    <path d="M0,26.1668246 L10.2943128,26.1668246 L10.2943128,27.3838863 L8.57014218,27.3838863 C7.96161137,27.3838863 7.55592417,27.4853081 7.30236967,27.6881517 C7.04881517,27.8909953 6.94739336,28.1952607 6.94739336,28.6009479 L6.94739336,41.0758294 C6.94739336,42.5464455 7.09952607,43.6620853 7.35308057,44.3720379 C7.70805687,45.4876777 8.41800948,46.349763 9.43222749,47.0090047 C10.4464455,47.6682464 11.7649289,47.9725118 13.3876777,47.9725118 C15.6189573,47.9725118 17.343128,47.4146919 18.5094787,46.2483412 C19.6758294,45.0819905 20.2843602,43.5099526 20.2843602,41.5829384 L20.2843602,31.7450237 C20.2843602,30.7308057 20.2336493,29.9701422 20.0815166,29.4630332 C19.9293839,28.9559242 19.7265403,28.550237 19.4729858,28.2459716 C19.2194313,27.9417062 18.864455,27.7388626 18.4587678,27.5867299 C18.0530806,27.4345972 17.3938389,27.3838863 16.4303318,27.3838863 L16.4303318,26.1668246 L25.8625592,26.1668246 L25.8625592,27.3838863 L25.2033175,27.3838863 C24.1383886,27.3838863 23.3777251,27.6881517 22.8706161,28.2459716 C22.3635071,28.8037915 22.1099526,29.6151659 22.1099526,30.6800948 L22.1099526,41.3293839 C22.1099526,43.9663507 21.3492891,46.0454976 19.8279621,47.4654028 C18.1037915,49.0881517 15.8218009,49.8488152 13.0327014,49.8488152 C10.5985782,49.8488152 8.62085308,49.4938389 7.25165877,48.7838863 C5.83175355,48.0739336 4.81753555,47.0597156 4.20900474,45.7919431 C3.70189573,44.7777251 3.49905213,43.5606635 3.49905213,42.0393365 L3.49905213,28.6009479 C3.49905213,28.2459716 3.34691943,27.9417062 3.09336493,27.6881517 C2.83981043,27.4853081 2.43412322,27.3838863 1.92701422,27.3838863 L0,27.3838863 L0,26.1668246 L0,26.1668246 Z"></path>
                    <path d="M126.067299,19.2701422 C125.509479,19.371564 125.053081,19.4222749 124.596682,19.4222749 C122.923223,19.4222749 122.568246,18.6616114 122.568246,16.7853081 L122.568246,9.22938389 L126.067299,9.22938389 L126.067299,5.93317536 L122.568246,5.93317536 L122.568246,1.01421801 L117.7,1.92701422 L117.7,5.93317536 L115.519431,5.93317536 L115.519431,9.22938389 L117.7,9.22938389 L117.7,17.343128 C117.7,21.4507109 119.272038,23.2763033 123.227488,23.2763033 C124.140284,23.2763033 125.103791,23.1748815 126.067299,22.9720379 L126.067299,19.2701422 L126.067299,19.2701422 Z"></path>
                    <path d="M132.659716,43.0028436 C132.558294,44.6763033 132.254028,45.842654 131.696209,46.5526066 C131.138389,47.2625592 130.529858,47.6175355 129.769194,47.6175355 C129.109953,47.6175355 128.602844,47.363981 128.197156,46.9075829 C127.791469,46.4511848 127.588626,45.7412322 127.588626,44.8791469 L127.588626,34.635545 L132.507583,34.635545 L132.507583,33.2663507 L127.588626,33.2663507 L127.588626,26.7246445 L126.422275,26.7246445 C126.320853,28.9052133 125.763033,30.6293839 124.799526,31.8464455 C124.140284,32.7085308 123.126066,33.2156398 121.858294,33.4184834 L121.858294,34.5848341 L124.647393,34.5848341 L124.647393,45.335545 C124.647393,46.5018957 125.00237,47.4654028 125.763033,48.1753555 C126.523697,48.8853081 127.537915,49.2402844 128.856398,49.2402844 C130.276303,49.2402844 131.442654,48.7331754 132.35545,47.7189573 C133.268246,46.7047393 133.724645,45.1327014 133.775355,43.0028436 L132.659716,43.0028436 L132.659716,43.0028436 Z"></path>
                    <path d="M95.6407583,32.7085308 C92.9023697,32.7085308 90.5696682,35.9033175 89.656872,39.5037915 L89.656872,33.0127962 L83.9772512,33.2663507 L83.9772512,34.4834123 L85.3464455,34.4834123 C85.9549763,34.4834123 86.4113744,34.635545 86.7156398,34.9905213 C87.0199052,35.3454976 87.2227488,35.9033175 87.2227488,36.663981 L87.2227488,46.6540284 C87.2227488,46.9582938 87.0706161,47.2118483 86.8170616,47.4146919 C86.5635071,47.6175355 86.1578199,47.7189573 85.6507109,47.7189573 L84.078673,47.7189573 L84.078673,48.936019 L93.8151659,48.936019 L93.8151659,47.7189573 L91.7867299,47.7189573 C91.1274882,47.7189573 90.67109,47.6175355 90.4175355,47.4146919 C90.163981,47.2118483 90.0118483,46.9075829 90.0118483,46.5526066 L90.0118483,43.6620853 C90.0118483,40.6701422 91.2796209,35.4976303 93.8151659,35.4976303 C94.5251185,35.4976303 94.3729858,36.6132701 95.7421801,36.6132701 C96.8578199,36.6132701 97.6691943,35.8018957 97.6691943,34.6862559 C97.7199052,33.4691943 96.7056872,32.7085308 95.6407583,32.7085308 L95.6407583,32.7085308 Z"></path>
                </g>
                <path d="M0.354976303,0 L0.354976303,22.7184834 C0.354976303,56.1876777 30.3251185,70.1331754 30.3251185,70.1331754 C30.3251185,70.1331754 60.2952607,56.1876777 60.2952607,22.7184834 L60.2952607,0 L0.354976303,0 L0.354976303,0 Z" id="Shape"></path>
            </g>
            <rect id="Rectangle-path" fill="#FFFFFF" x="1.36919431" y="1.01421801" width="57.9625592" height="21.7549763"></rect>
            <path d="M49.5445498,44.8791469 C49.5445498,43.0028436 49.2402844,41.1265403 48.7331754,39.3009479 C43.5099526,42.6985782 38.3374408,43.6113744 35.2440758,41.785782 C35.3962085,41.5829384 35.4976303,41.278673 35.4976303,40.9744076 C35.4976303,40.264455 34.9398104,39.7066351 34.2298578,39.7066351 C33.9255924,39.7066351 33.6720379,39.8080569 33.4691943,39.9601896 C31.592891,36.8668246 32.5056872,31.6943128 35.9033175,26.47109 C34.128436,25.9132701 32.2521327,25.6597156 30.3251185,25.6597156 L30.3251185,25.6597156 C28.4488152,25.6597156 26.5725118,25.963981 24.7469194,26.47109 C28.1445498,31.6943128 29.057346,36.8668246 27.1810427,39.9601896 C26.9781991,39.8080569 26.6739336,39.7066351 26.4203791,39.7066351 C25.7104265,39.7066351 25.1526066,40.264455 25.1526066,40.9744076 C25.1526066,41.278673 25.2540284,41.5322275 25.4061611,41.7350711 C22.3127962,43.6113744 17.1402844,42.6985782 11.9170616,39.250237 C11.3592417,41.0251185 11.1056872,42.9014218 11.1056872,44.828436 L11.1056872,44.828436 C11.1056872,46.7047393 11.4099526,48.5810427 11.9170616,50.4066351 C17.1402844,47.0090047 22.3127962,46.0962085 25.4061611,47.9725118 C25.2540284,48.1753555 25.1526066,48.4796209 25.1526066,48.7331754 C25.1526066,49.443128 25.7104265,50.0009479 26.4203791,50.0009479 C26.7246445,50.0009479 26.9781991,49.8995261 27.1810427,49.7473934 C29.057346,52.8407583 28.1445498,58.0132701 24.7469194,63.2364929 C26.5218009,63.7943128 28.3981043,64.0478673 30.3251185,64.0478673 L30.3251185,64.0478673 C32.2014218,64.0478673 34.0777251,63.7436019 35.9033175,63.2364929 C32.5056872,58.0132701 31.592891,52.8407583 33.4691943,49.7473934 C33.6720379,49.8995261 33.9763033,50.0009479 34.2298578,50.0009479 C34.9398104,50.0009479 35.4976303,49.443128 35.4976303,48.7331754 C35.4976303,48.42891 35.3962085,48.1753555 35.2440758,47.9725118 C38.3374408,46.0962085 43.5099526,47.0090047 48.7331754,50.4066351 C49.2909953,48.6317536 49.5445498,46.7554502 49.5445498,44.8791469 L49.5445498,44.8791469 L49.5445498,44.8791469 Z" id="Shape" fill="#FFFFFF"></path>
            <ellipse id="Oval" fill="#003A65" cx="30.3758294" cy="44.8791469" rx="3.44834123" ry="3.44834123"></ellipse>
            <g id="Group" transform="translate(3.042654, 1.014218)" fill="#D70929">
                <path d="M8.97582938,13.2862559 C7.50521327,12.1706161 5.62890995,12.1706161 5.32464455,12.1706161 C5.67962085,11.5113744 5.93317536,11.3592417 6.59241706,10.9535545 C4.25971564,10.9535545 4.00616114,10.3450237 3.90473934,9.78720379 C4.51327014,9.88862559 5.27393365,9.68578199 5.52748815,9.43222749 C3.85402844,9.33080569 3.29620853,8.21516588 3.09336493,7.80947867 C4.41184834,7.70805687 4.41184834,7.04881517 4.20900474,6.64312796 C4.05687204,6.33886256 3.65118483,6.08530806 3.19478673,6.23744076 C2.78909953,6.33886256 2.43412322,6.89668246 2.02843602,6.94739336 C1.67345972,6.99810427 1.62274882,6.59241706 1.62274882,6.38957346 C1.21706161,6.38957346 0.811374408,6.59241706 0.557819905,6.84597156 C0.659241706,5.32464455 2.28199052,4.71611374 3.29620853,4.91895735 C3.29620853,4.91895735 3.24549763,4.25971564 3.04265403,4.05687204 C2.73838863,3.75260664 2.33270142,3.80331754 2.02843602,3.54976303 C1.82559242,3.39763033 1.82559242,3.09336493 2.18056872,2.94123223 C1.87630332,2.53554502 0.963507109,2.48483412 0.963507109,2.48483412 C2.78909953,1.11563981 3.95545024,2.83981043 4.36113744,4.15829384 C4.86824645,3.54976303 4.91895735,3.19478673 4.81753555,2.89052133 C4.76682464,2.53554502 4.46255924,2.28199052 4.51327014,2.02843602 C4.56398104,1.72417062 4.91895735,1.77488152 4.91895735,1.77488152 C4.86824645,1.26777251 4.46255924,0.912796209 4.15829384,0.760663507 C4.15829384,0.760663507 5.62890995,0.608530806 6.18672986,2.12985782 C6.74454976,3.54976303 6.03459716,4.41184834 6.03459716,4.41184834 C6.03459716,4.41184834 6.59241706,4.46255924 6.79526066,4.20900474 C7.04881517,3.90473934 6.89668246,3.49905213 7.15023697,3.29620853 C7.40379147,3.09336493 7.70805687,3.49905213 7.70805687,3.49905213 C7.96161137,3.24549763 7.80947867,2.53554502 7.75876777,2.38341232 C7.75876777,2.38341232 8.51943128,2.83981043 8.41800948,3.75260664 C8.36729858,4.36113744 7.75876777,4.86824645 7.50521327,5.17251185 C7.25165877,5.47677725 6.54170616,6.18672986 7.70805687,8.26587678 C8.41800948,9.53364929 9.12796209,10.0407583 9.53364929,10.192891 C9.22938389,10.6492891 8.77298578,11.9170616 8.97582938,13.2862559 L8.97582938,13.2862559 Z" id="Shape"></path>
                <path d="M3.19478673,16.0753555 C1.77488152,16.1767773 -0.760663507,16.7345972 0.557819905,19.371564 C0.557819905,18.8137441 0.760663507,18.3066351 1.06492891,18.1037915 C1.16635071,18.5094787 1.47061611,18.5601896 1.72417062,18.4080569 C1.92701422,18.2559242 2.18056872,17.7995261 2.43412322,17.6473934 C2.68767773,17.4952607 2.99194313,17.3938389 3.39763033,17.4952607 C2.23127962,19.4222749 3.60047393,21.2985782 4.66540284,21.1971564 C4.05687204,20.7914692 4.10758294,20.2336493 4.10758294,20.0308057 C4.10758294,20.0308057 4.46255924,20.1322275 4.61469194,19.8279621 C4.71611374,19.5744076 4.56398104,19.1180095 4.66540284,18.6616114 C4.76682464,18.357346 5.02037915,18.2052133 5.27393365,18.2559242 C5.62890995,18.3066351 5.78104265,18.6616114 5.73033175,18.9151659 C5.73033175,19.2701422 5.52748815,19.6251185 5.52748815,19.6251185 C6.13601896,20.0815166 7.86018957,19.5236967 8.92511848,18.6616114 C8.92511848,18.9151659 8.87440758,19.4222749 8.62085308,19.9293839 C9.53364929,20.0815166 11.1563981,19.0672986 11.6127962,18.2559242 C11.6635071,18.6616114 11.6127962,19.5236967 11.1056872,20.0815166 C11.8156398,20.2336493 13.6919431,19.6758294 15.2132701,18.2052133 C15.3146919,19.0165877 16.5317536,20.2336493 17.9009479,19.5744076 C17.9009479,19.5744076 17.2924171,19.2194313 17.2924171,18.7123223 C17.2924171,17.9009479 18.2052133,17.2924171 19.2701422,16.7853081 C20.5379147,16.2274882 22.6677725,15.9739336 24.7976303,14.9597156 C28.7023697,13.0834123 29.4123223,11.3085308 32.6578199,11.3085308 C34.0777251,11.3085308 35.4469194,11.6127962 36.156872,12.7791469 C36.8668246,13.9454976 36.663981,15.3146919 37.4753555,16.0753555 C38.2867299,16.836019 39.6559242,16.2781991 40.4165877,16.0246445 C42.292891,15.4668246 45.0312796,14.3004739 46.7047393,14.1990521 C48.3781991,14.0976303 48.8345972,15.3146919 48.8853081,15.4161137 C49.0374408,15.77109 48.8853081,16.0246445 48.6317536,15.9739336 C48.0739336,15.9232227 47.0597156,15.6696682 46.4511848,16.0246445 C45.5890995,16.4810427 45.842654,17.6473934 45.842654,17.6473934 C46.0454976,17.343128 46.5526066,16.7853081 47.1104265,16.7853081 C47.1104265,16.836019 47.2118483,17.4445498 47.7189573,17.2417062 C48.0739336,17.0895735 48.4796209,16.6331754 49.1388626,16.7345972 C48.4796209,17.2924171 47.2625592,19.4729858 48.9867299,20.4364929 C48.7331754,20.0308057 48.6824645,19.3208531 48.8853081,19.0165877 C48.8853081,19.0165877 49.3924171,19.371564 49.6966825,18.864455 C49.8488152,18.6616114 49.6459716,18.1037915 49.7473934,17.6981043 C49.8488152,17.343128 50.2037915,17.0895735 50.2037915,17.0895735 C50.3559242,17.5459716 51.2180095,19.0165877 53.5,18.9151659 C52.992891,18.7123223 52.6379147,18.357346 52.5872038,18.1037915 C52.8407583,17.9009479 52.992891,17.4445498 52.6886256,17.343128 C52.4350711,17.2417062 51.9279621,17.343128 51.6744076,16.9881517 C51.3701422,16.5824645 51.471564,15.9739336 51.471564,15.9739336 C52.2322275,16.32891 54.2099526,17.0895735 55.021327,15.3146919 C54.7677725,15.4668246 54.1085308,15.6696682 53.7028436,15.6696682 C53.6521327,15.4668246 53.4492891,14.9090047 53.0436019,14.8582938 C52.485782,14.8075829 52.1308057,15.0104265 51.5729858,15.0611374 C51.2180095,15.1118483 51.0151659,14.9090047 50.9137441,14.7061611 C50.8630332,14.5540284 50.9137441,14.3004739 51.0151659,14.1990521 C51.2180095,13.9454976 51.6236967,13.742654 51.6236967,13.742654 C51.3194313,13.1848341 50.3559242,13.3876777 50.1530806,13.4383886 C50.2037915,13.1341232 50.5080569,12.5255924 51.1672986,12.2720379 C50.9137441,11.8663507 50.2037915,11.5113744 48.9867299,11.714218 C49.1388626,11.207109 49.5445498,10.7 49.8995261,10.5478673 C49.2402844,10.192891 47.7189573,10.3450237 46.349763,11.3085308 C46.4004739,11.0042654 46.349763,10.0914692 45.9440758,9.73649289 C45.9440758,9.73649289 44.1691943,11.9677725 42.3943128,11.714218 C40.6194313,11.4099526 40.9236967,9.28009479 40.9236967,9.28009479 C40.9236967,9.28009479 44.3720379,9.83791469 46.0962085,9.07725118 C47.7696682,8.31658768 47.7696682,7.09952607 49.1895735,6.38957346 C50.3052133,5.78104265 51.6744076,6.28815166 51.6744076,6.28815166 C51.471564,5.12180095 49.2909953,4.20900474 47.5668246,5.98388626 C47.5668246,5.98388626 47.5161137,3.29620853 43.4085308,3.49905213 C41.8872038,3.60047393 39.0981043,4.41184834 36.5118483,4.86824645 C33.9763033,5.32464455 30.2744076,5.52748815 28.7023697,5.52748815 C27.1303318,5.52748815 25.5582938,5.17251185 25.5582938,4.15829384 C25.5582938,3.14407583 26.7246445,2.99194313 27.4853081,2.99194313 C28.7023697,2.99194313 30.3758294,3.70189573 31.7450237,4.15829384 C32.7085308,4.51327014 33.6720379,4.51327014 34.1791469,4.51327014 C35.5990521,4.51327014 37.3739336,3.80331754 38.2867299,3.44834123 C39.1995261,3.09336493 39.9094787,2.89052133 41.6336493,3.04265403 C41.0758294,2.33270142 39.0981043,1.52132701 36.8161137,2.73838863 C36.6132701,2.38341232 37.0696682,1.67345972 37.9317536,1.36919431 C37.5260664,1.11563981 36.2075829,0.760663507 34.635545,0.811374408 C32.1507109,0.862085308 31.3393365,2.02843602 28.9559242,1.92701422 C26.5218009,1.82559242 24.3412322,2.23127962 24.3412322,4.05687204 C24.3412322,5.52748815 26.1161137,6.64312796 28.9559242,6.74454976 C28.9052133,6.99810427 28.4995261,7.25165877 28.3473934,7.35308057 C29.3109005,7.50521327 30.7815166,7.40379147 32.6578199,6.18672986 C32.7085308,6.38957346 32.5563981,6.89668246 32.3535545,7.04881517 C33.0127962,7.04881517 34.2805687,6.69383886 35.8018957,5.78104265 C35.8018957,5.98388626 35.7511848,6.33886256 35.3962085,6.69383886 C37.17109,6.59241706 38.1345972,5.67962085 39.3516588,5.27393365 C40.9744076,4.76682464 46.0962085,3.54976303 46.0962085,6.44028436 C46.0962085,7.15023697 45.7412322,8.11374408 43.9663507,8.11374408 C42.1914692,8.11374408 39.1488152,7.30236967 38.5402844,7.20094787 C37.9317536,7.09952607 37.2725118,6.94739336 35.7511848,7.15023697 C34.2805687,7.35308057 23.3777251,8.92511848 21.6028436,9.17867299 C21.6028436,9.78720379 21.6028436,11.6127962 22.5663507,12.4241706 C21.8056872,12.7791469 20.9943128,13.0327014 19.5744076,12.3734597 C19.4729858,12.8298578 19.5744076,14.1990521 20.2336493,14.9597156 C19.6758294,15.1625592 18.5094787,15.4161137 17.3938389,14.7061611 C16.9374408,15.5175355 15.77109,17.6473934 12.5255924,16.9881517 C12.728436,16.836019 13.2862559,15.7203791 13.2862559,15.5175355 C12.6270142,15.9739336 10.9535545,16.9374408 7.80947867,16.5317536 C6.84597156,16.4303318 5.83175355,16.1260664 5.57819905,15.5175355 C5.27393365,14.8582938 5.67962085,13.9454976 5.47677725,13.4383886 C5.07109005,12.3734597 3.90473934,12.4748815 3.90473934,12.4748815 C4.00616114,12.5763033 4.46255924,12.8298578 4.56398104,13.235545 C4.56398104,13.235545 4.10758294,13.1848341 4.05687204,13.742654 C4.00616114,14.4526066 4.25971564,15.2132701 4.25971564,15.2132701 C2.94123223,13.8947867 0.760663507,12.4748815 0.0507109005,14.8075829 C0.354976303,14.5033175 0.709952607,14.3004739 1.11563981,14.3511848 C1.11563981,14.3511848 0.862085308,14.756872 1.36919431,15.1118483 C1.62274882,15.263981 2.23127962,15.1118483 2.53554502,15.2132701 C2.89052133,15.4668246 3.19478673,16.0753555 3.19478673,16.0753555" id="Shape"></path>
                <path d="M32.1507109,15.3654028 C32.4042654,15.5682464 32.3028436,15.77109 32.1507109,15.9232227 C31.9985782,16.0246445 30.578673,16.9881517 29.6658768,16.6838863 C28.9559242,16.4810427 28.9559242,15.2132701 27.9924171,14.756872 C27.1810427,14.4018957 26.3189573,15.0104265 26.3189573,15.0104265 C26.6739336,15.0611374 27.0796209,15.1625592 27.2317536,15.263981 C27.2317536,15.263981 27.0796209,15.5682464 27.3838863,15.7203791 C27.6881517,15.8725118 27.8909953,15.8218009 28.0938389,16.0246445 C28.3473934,16.32891 28.1445498,16.9374408 28.1445498,16.9374408 C26.0146919,15.263981 24.0369668,16.3796209 23.935545,17.4952607 C24.1383886,17.3938389 24.6454976,17.0895735 24.949763,17.1402844 C24.949763,17.1402844 24.949763,17.4445498 25.2033175,17.5459716 C25.5075829,17.6473934 25.8625592,17.343128 26.3189573,17.3938389 C26.7753555,17.4445498 27.1810427,17.9009479 27.1810427,17.9009479 C26.5218009,18.0023697 25.0511848,19.0672986 26.1668246,20.7914692 C26.1668246,20.4872038 26.1668246,20.0815166 26.3696682,19.9293839 C26.3696682,19.9293839 26.7246445,20.1322275 26.9781991,19.878673 C27.2317536,19.6758294 27.2824645,19.1687204 27.6374408,18.8137441 C27.9417062,18.4587678 28.3473934,18.4080569 28.3473934,18.4080569 C28.1952607,19.3208531 29.0066351,21.1971564 30.578673,20.7914692 C30.2744076,20.5886256 29.9701422,20.1829384 29.9701422,19.9800948 C29.9701422,19.9800948 30.4265403,19.8279621 30.3758294,19.5744076 C30.2744076,19.1687204 29.7165877,19.2701422 29.7165877,18.7630332 C29.7165877,18.4587678 29.9701422,18.2559242 30.3758294,18.2559242 C31.3393365,18.2559242 31.1872038,19.4729858 31.1872038,19.4729858 C31.7957346,19.4222749 32.7085308,18.7123223 32.9113744,17.9516588 C33.2663507,18.1545024 33.4184834,18.9658768 33.3677725,19.4222749 C34.128436,19.1180095 34.7369668,18.5094787 34.7369668,16.3796209 C35.3454976,17.2924171 36.9682464,17.7995261 38.1345972,16.9881517 C36.6132701,16.7345972 36.3090047,15.1625592 36.2582938,14.9090047 C36.156872,14.6047393 36.0047393,13.3369668 35.3454976,12.6777251 C34.3819905,11.714218 32.1507109,11.7649289 30.8322275,12.1706161 C30.4772512,12.2720379 30.071564,12.4748815 30.071564,13.1341232 C30.071564,13.742654 30.1729858,14.3511848 31.085782,14.8075829 C31.6943128,15.1118483 31.9985782,15.263981 32.1507109,15.3654028 L32.1507109,15.3654028 Z" id="Shape"></path>
                <path d="M22.7691943,4.56398104 C22.8199052,4.46255924 22.921327,4.10758294 22.5663507,4.00616114 C22.0592417,3.85402844 21.0450237,4.00616114 21.0450237,4.00616114 C21.5014218,3.44834123 21.2985782,2.12985782 20.7407583,1.72417062 C20.6900474,2.33270142 20.0815166,2.68767773 19.5236967,2.53554502 C18.8137441,2.33270142 19.0672986,1.36919431 19.3208531,0.963507109 C18.7630332,0.912796209 17.850237,1.06492891 17.0895735,2.18056872 C16.8867299,0.760663507 15.4161137,0.507109005 15.1118483,0.456398104 C15.4161137,1.06492891 15.0611374,1.97772512 14.5033175,1.77488152 C14.4018957,0.811374408 13.3876777,0.405687204 13.3369668,1.06492891 C13.235545,2.18056872 12.221327,3.49905213 11.3592417,3.54976303 C11.2578199,4.15829384 12.0184834,4.51327014 12.4241706,4.51327014 C11.4099526,5.98388626 9.93933649,5.73033175 9.12796209,5.42606635 C9.07725118,5.98388626 9.73649289,7.20094787 10.9028436,7.20094787 C10.2943128,8.16445498 8.97582938,8.21516588 8.57014218,8.01232227 C8.41800948,8.92511848 9.83791469,9.73649289 10.2436019,9.78720379 C9.02654028,11.714218 9.43222749,14.0469194 10.1421801,14.9597156 C10.1421801,14.9597156 10.3957346,14.3004739 10.7507109,13.9454976 C11.0549763,13.6412322 11.3085308,13.5905213 11.4606635,13.6919431 C11.7649289,13.8440758 11.6635071,14.249763 11.5113744,14.5540284 C11.207109,15.1118483 10.5985782,15.7203791 10.5985782,15.7203791 C11.714218,15.9739336 13.6919431,14.8075829 13.9454976,14.3004739 C14.1483412,14.9090047 13.742654,15.9232227 13.4890995,16.3796209 C15.6189573,16.5824645 16.6838863,14.756872 17.1402844,13.6412322 C17.850237,14.4526066 18.8137441,14.5540284 19.2701422,14.4526066 C18.5601896,13.1848341 18.864455,11.8156398 19.1687204,11.3592417 C19.878673,12.0691943 20.9436019,12.221327 21.4507109,12.0184834 C20.7407583,11.0549763 20.7407583,8.72227488 20.9436019,7.91090047 C21.4,8.21516588 22.0592417,8.31658768 22.3127962,8.16445498 C22.3127962,8.16445498 21.8563981,7.35308057 22.0085308,6.18672986 C22.1099526,5.57819905 22.5663507,4.96966825 22.7691943,4.56398104 L22.7691943,4.56398104 Z M14.5540284,5.17251185 C14.6554502,5.07109005 14.756872,4.96966825 14.8075829,5.07109005 C14.9597156,5.27393365 14.9597156,5.42606635 15.263981,5.67962085 C15.4668246,5.83175355 15.77109,5.98388626 15.8725118,5.98388626 C15.9232227,6.28815166 15.4161137,6.64312796 14.756872,6.03459716 C14.4526066,5.78104265 14.3511848,5.42606635 14.5540284,5.17251185 L14.5540284,5.17251185 Z M16.1767773,10.9535545 C15.9232227,11.4606635 14.8582938,12.221327 14.1990521,11.9170616 C14.4526066,11.8156398 15.2132701,11.2578199 15.6189573,10.5985782 C15.5175355,10.5478673 15.263981,10.3957346 15.2132701,10.2943128 C14.9597156,10.3957346 14.5540284,10.8014218 14.249763,11.2578199 C14.1483412,11.0042654 14.3511848,10.3450237 14.6047393,9.99004739 C14.4018957,9.93933649 14.0976303,9.83791469 13.9962085,9.73649289 C13.6919431,10.4464455 13.6919431,11.3592417 13.742654,11.6635071 C13.0834123,11.3592417 13.0834123,10.0407583 13.3369668,9.53364929 C12.5255924,8.97582938 12.7791469,8.31658768 13.0327014,8.16445498 C13.0327014,8.36729858 13.235545,8.87440758 13.9454976,9.17867299 C14.6554502,9.53364929 14.9090047,9.28009479 15.0104265,9.12796209 C15.1625592,8.82369668 14.8075829,8.57014218 14.5540284,8.31658768 C14.3004739,8.06303318 14.249763,7.65734597 14.4018957,7.45450237 C14.6047393,7.20094787 14.9597156,7.25165877 15.1625592,7.40379147 C14.3004739,7.55592417 15.3146919,8.46872038 15.6189573,8.57014218 C15.8725118,8.72227488 17.1909953,8.97582938 16.836019,8.21516588 C17.0388626,8.26587678 17.2924171,8.51943128 17.2417062,8.87440758 C17.1909953,9.12796209 16.836019,9.33080569 16.4810427,9.28009479 C16.1260664,9.22938389 15.7203791,9.12796209 15.5682464,9.38151659 C15.4668246,9.53364929 15.4668246,9.88862559 16.1767773,10.2436019 C16.8867299,10.5985782 17.343128,10.4971564 17.5459716,10.3450237 C17.4952607,10.6492891 17.0895735,11.2578199 16.1767773,10.9535545 L16.1767773,10.9535545 Z M18.9658768,7.40379147 C18.9151659,7.70805687 18.5601896,7.86018957 18.1037915,7.75876777 C17.2417062,7.60663507 17.2417062,6.94739336 17.4952607,6.84597156 C17.5966825,6.94739336 17.850237,7.09952607 18.1037915,7.15023697 C18.4587678,7.20094787 18.6109005,7.15023697 18.864455,7.15023697 C18.9658768,7.15023697 18.9658768,7.30236967 18.9658768,7.40379147 L18.9658768,7.40379147 Z" id="Shape"></path>
            </g>
            <g id="Group" transform="translate(65.417062, 64.909953)" fill="#003A65">
                <path d="M7.75876777,7.91090047 L7.75876777,1.26777251 L5.78104265,1.26777251 L5.78104265,7.86018957 C5.78104265,9.02654028 5.07109005,9.73649289 4.00616114,9.73649289 C2.94123223,9.73649289 2.28199052,9.02654028 2.28199052,7.86018957 L2.28199052,1.26777251 L0.304265403,1.26777251 L0.304265403,7.91090047 C0.304265403,10.0407583 1.92701422,11.4606635 4.00616114,11.4606635 C6.08530806,11.4606635 7.75876777,10.0407583 7.75876777,7.91090047 L7.75876777,7.91090047 Z" id="Shape"></path>
                <polygon id="Shape" points="17.4952607 11.3592417 13.9454976 5.27393365 17.2924171 1.26777251 14.8582938 1.26777251 11.3085308 5.62890995 11.3085308 1.26777251 9.33080569 1.26777251 9.33080569 11.3592417 11.3085308 11.3592417 11.3085308 8.31658768 12.6270142 6.74454976 15.2132701 11.3592417"></polygon>
                <rect id="Rectangle-path" x="20.7914692" y="0.202843602" width="0.709952607" height="12.221327"></rect>
                <path d="M47.0597156,11.3592417 L47.0597156,9.78720379 L46.349763,9.78720379 C45.8933649,9.78720379 45.6905213,9.58436019 45.6905213,9.12796209 L45.6905213,1.26777251 L43.8649289,1.26777251 L43.8649289,9.28009479 C43.8649289,10.3450237 44.5241706,11.4099526 46.0454976,11.4099526 L47.0597156,11.4099526 L47.0597156,11.3592417 Z M40.4672986,8.62085308 C40.4672986,9.07725118 40.4165877,9.38151659 40.2137441,9.53364929 C39.9094787,9.83791469 39.5545024,9.88862559 39.0473934,9.88862559 C38.3374408,9.88862559 37.9824645,9.53364929 37.9824645,9.02654028 C37.9824645,8.51943128 38.3374408,8.16445498 38.9966825,8.16445498 L40.4672986,8.16445498 L40.4672986,8.62085308 L40.4672986,8.62085308 Z M42.292891,11.3592417 L42.292891,6.49099526 C42.292891,4.76682464 41.2279621,3.85402844 39.1488152,3.85402844 C37.9317536,3.85402844 37.2218009,4.05687204 36.4611374,4.86824645 L37.6274882,6.03459716 C38.0331754,5.57819905 38.3374408,5.42606635 39.0473934,5.42606635 C40.0109005,5.42606635 40.4165877,5.78104265 40.4165877,6.59241706 L40.4165877,6.94739336 L38.6924171,6.94739336 C36.9682464,6.94739336 36.156872,7.91090047 36.156872,9.07725118 C36.156872,9.73649289 36.3597156,10.3450237 36.7654028,10.7507109 C37.2218009,11.207109 37.8303318,11.4099526 38.6417062,11.4099526 C39.5037915,11.4099526 39.9601896,11.207109 40.4672986,10.7 L40.4672986,11.3592417 L42.292891,11.3592417 L42.292891,11.3592417 Z M34.8383886,11.3592417 L34.8383886,1.26777251 L32.9113744,1.26777251 L30.2744076,6.74454976 L27.6374408,1.26777251 L25.7104265,1.26777251 L25.7104265,11.3592417 L27.6881517,11.3592417 L27.6881517,5.47677725 L29.6151659,9.33080569 L30.9336493,9.33080569 L32.8606635,5.47677725 L32.8606635,11.3592417 L34.8383886,11.3592417 L34.8383886,11.3592417 Z" id="Shape"></path>
                <path d="M51.9279621,8.62085308 C51.9279621,9.07725118 51.8772512,9.38151659 51.6744076,9.53364929 C51.3701422,9.83791469 51.0151659,9.88862559 50.5080569,9.88862559 C49.7981043,9.88862559 49.443128,9.53364929 49.443128,9.02654028 C49.443128,8.51943128 49.7981043,8.16445498 50.457346,8.16445498 L51.9279621,8.16445498 L51.9279621,8.62085308 L51.9279621,8.62085308 Z M53.8042654,11.3592417 L53.8042654,6.49099526 C53.8042654,4.76682464 52.7393365,3.85402844 50.6601896,3.85402844 C49.443128,3.85402844 48.7331754,4.05687204 47.9725118,4.86824645 L49.1388626,6.03459716 C49.5445498,5.57819905 49.8488152,5.42606635 50.5587678,5.42606635 C51.5222749,5.42606635 51.9279621,5.78104265 51.9279621,6.59241706 L51.9279621,6.94739336 L50.2037915,6.94739336 C48.4796209,6.94739336 47.6682464,7.91090047 47.6682464,9.07725118 C47.6682464,9.73649289 47.87109,10.3450237 48.2767773,10.7507109 C48.7331754,11.207109 49.3417062,11.4099526 50.1530806,11.4099526 C51.0151659,11.4099526 51.471564,11.207109 51.978673,10.7 L51.978673,11.3592417 L53.8042654,11.3592417 L53.8042654,11.3592417 Z" id="Shape"></path>
                <path d="M61.2587678,3.95545024 L59.3317536,3.95545024 L57.8611374,8.51943128 L56.3398104,3.95545024 L54.4127962,3.95545024 L56.9483412,10.8521327 L56.6440758,11.7649289 C56.4412322,12.3227488 56.2383886,12.4241706 55.7312796,12.4241706 L55.3255924,12.4241706 L55.3255924,14.0976303 L56.035545,14.0976303 C56.6440758,14.0976303 57.2018957,13.9454976 57.6075829,13.5398104 C57.8104265,13.3369668 58.0132701,12.9819905 58.1654028,12.5763033 L61.2587678,3.95545024 L61.2587678,3.95545024 Z" id="Shape"></path>
                <path d="M70.5388626,11.3592417 L70.5388626,3.95545024 L68.7132701,3.95545024 L68.7132701,11.3592417 L70.5388626,11.3592417 L70.5388626,11.3592417 Z M70.5895735,2.68767773 L70.5895735,1.16635071 L68.7132701,1.16635071 L68.7132701,2.68767773 L70.5895735,2.68767773 L70.5895735,2.68767773 Z M67.5976303,9.02654028 C67.5976303,7.75876777 66.8369668,6.99810427 65.4170616,6.84597156 L64.2507109,6.74454976 C63.5914692,6.69383886 63.4900474,6.38957346 63.4900474,6.08530806 C63.4900474,5.73033175 63.7943128,5.37535545 64.5549763,5.37535545 C65.214218,5.37535545 65.8227488,5.47677725 66.2791469,5.88246445 L67.3947867,4.71611374 C66.6848341,4.05687204 65.721327,3.85402844 64.5549763,3.85402844 C63.0336493,3.85402844 61.7151659,4.66540284 61.7151659,6.18672986 C61.7151659,7.55592417 62.5265403,8.11374408 63.8957346,8.26587678 L65.0620853,8.36729858 C65.6199052,8.41800948 65.8227488,8.67156398 65.8227488,9.02654028 C65.8227488,9.58436019 65.1635071,9.78720379 64.5042654,9.78720379 C63.9464455,9.78720379 63.1350711,9.68578199 62.5265403,9.07725118 L61.3094787,10.2943128 C62.2222749,11.207109 63.2872038,11.3592417 64.4535545,11.3592417 C66.1777251,11.4606635 67.5976303,10.6492891 67.5976303,9.02654028 L67.5976303,9.02654028 Z" id="Shape"></path>
                <path d="M75.914218,8.62085308 C75.914218,9.07725118 75.8635071,9.38151659 75.6606635,9.53364929 C75.3563981,9.83791469 75.0014218,9.88862559 74.4943128,9.88862559 C73.7843602,9.88862559 73.4293839,9.53364929 73.4293839,9.02654028 C73.4293839,8.51943128 73.7843602,8.16445498 74.4436019,8.16445498 L75.914218,8.16445498 L75.914218,8.62085308 L75.914218,8.62085308 Z M77.7905213,11.3592417 L77.7905213,6.49099526 C77.7905213,4.76682464 76.7255924,3.85402844 74.6464455,3.85402844 C73.4293839,3.85402844 72.7194313,4.05687204 71.9587678,4.86824645 L73.1251185,6.03459716 C73.5308057,5.57819905 73.8350711,5.42606635 74.5450237,5.42606635 C75.5085308,5.42606635 75.914218,5.78104265 75.914218,6.59241706 L75.914218,6.94739336 L74.1900474,6.94739336 C72.4658768,6.94739336 71.6545024,7.91090047 71.6545024,9.07725118 C71.6545024,9.73649289 71.857346,10.3450237 72.2630332,10.7507109 C72.7194313,11.207109 73.3279621,11.4099526 74.1393365,11.4099526 C75.0014218,11.4099526 75.4578199,11.207109 75.9649289,10.7 L75.9649289,11.3592417 L77.7905213,11.3592417 L77.7905213,11.3592417 Z" id="Shape"></path>
                <rect id="Rectangle-path" x="82.2023697" y="0.202843602" width="0.709952607" height="12.221327"></rect>
                <path d="M93.9165877,8.36729858 C93.9165877,7.45450237 93.6630332,6.74454976 93.1559242,6.23744076 C92.750237,5.83175355 92.1417062,5.57819905 91.22891,5.47677725 L90.0118483,5.32464455 C89.6061611,5.27393365 89.2511848,5.12180095 89.0990521,4.91895735 C88.8962085,4.71611374 88.7947867,4.46255924 88.7947867,4.20900474 C88.7947867,3.49905213 89.3018957,2.94123223 90.3668246,2.94123223 C91.0260664,2.94123223 91.7867299,3.04265403 92.4459716,3.65118483 L93.7137441,2.43412322 C92.8516588,1.57203791 91.8374408,1.26777251 90.4682464,1.26777251 C88.2876777,1.26777251 86.9691943,2.53554502 86.9691943,4.31042654 C86.9691943,5.17251185 87.2227488,5.83175355 87.6791469,6.28815166 C88.135545,6.74454976 88.7947867,6.99810427 89.656872,7.15023697 L90.8739336,7.30236967 C91.3303318,7.35308057 91.5838863,7.45450237 91.7867299,7.65734597 C91.9895735,7.86018957 92.0909953,8.16445498 92.0909953,8.51943128 C92.0909953,9.33080569 91.4824645,9.78720379 90.3161137,9.78720379 C89.4033175,9.78720379 88.4905213,9.58436019 87.8819905,8.92511848 L86.614218,10.192891 C87.628436,11.207109 88.7947867,11.5113744 90.3161137,11.5113744 C92.2938389,11.4606635 93.9165877,10.3450237 93.9165877,8.36729858 L93.9165877,8.36729858 Z" id="Shape"></path>
                <path d="M97.0606635,11.3592417 L97.0606635,3.95545024 L95.2350711,3.95545024 L95.2350711,11.3592417 L97.0606635,11.3592417 L97.0606635,11.3592417 Z M97.0606635,2.68767773 L97.0606635,1.16635071 L95.1843602,1.16635071 L95.1843602,2.68767773 L97.0606635,2.68767773 L97.0606635,2.68767773 Z" id="Shape"></path>
                <path d="M110.346919,7.45450237 C110.346919,8.41800948 110.194787,9.38151659 109.129858,9.38151659 C108.014218,9.38151659 107.912796,8.41800948 107.912796,7.45450237 C107.912796,6.49099526 108.014218,5.52748815 109.129858,5.52748815 C110.245498,5.52748815 110.346919,6.49099526 110.346919,7.45450237 L110.346919,7.45450237 Z M112.223223,11.1056872 L112.223223,3.95545024 L110.448341,3.95545024 L110.448341,4.66540284 C109.941232,4.10758294 109.434123,3.90473934 108.622749,3.90473934 C107.912796,3.90473934 107.253555,4.15829384 106.847867,4.56398104 C106.137915,5.27393365 106.087204,6.18672986 106.087204,7.50521327 C106.087204,8.77298578 106.137915,9.73649289 106.847867,10.4464455 C107.253555,10.8521327 107.862085,11.1056872 108.622749,11.1056872 C109.332701,11.1056872 109.890521,10.9028436 110.39763,10.3450237 L110.39763,11.1056872 C110.39763,11.8663507 109.991943,12.6270142 108.927014,12.6270142 C108.318483,12.6270142 107.912796,12.4748815 107.456398,12.0691943 L106.290047,13.235545 C107.050711,13.9962085 107.862085,14.1990521 108.977725,14.1990521 C110.95545,14.1483412 112.223223,12.8805687 112.223223,11.1056872 L112.223223,11.1056872 Z M104.76872,11.3592417 L104.76872,6.64312796 C104.76872,5.83175355 104.616588,5.12180095 104.008057,4.56398104 C103.60237,4.15829384 102.993839,3.90473934 102.283886,3.90473934 C101.624645,3.90473934 100.914692,4.15829384 100.458294,4.66540284 L100.458294,4.00616114 L98.6327014,4.00616114 L98.6327014,11.4099526 L100.458294,11.4099526 L100.458294,6.94739336 C100.458294,5.93317536 101.117536,5.57819905 101.675355,5.57819905 C102.233175,5.57819905 102.892417,5.93317536 102.892417,6.94739336 L102.892417,11.4099526 L104.76872,11.4099526 L104.76872,11.3592417 Z" id="Shape"></path>
                <path d="M117.7,8.62085308 C117.7,9.07725118 117.649289,9.38151659 117.446445,9.53364929 C117.14218,9.83791469 116.787204,9.88862559 116.280095,9.88862559 C115.570142,9.88862559 115.215166,9.53364929 115.215166,9.02654028 C115.215166,8.51943128 115.570142,8.16445498 116.229384,8.16445498 L117.7,8.16445498 L117.7,8.62085308 L117.7,8.62085308 Z M119.525592,11.3592417 L119.525592,6.49099526 C119.525592,4.76682464 118.460664,3.85402844 116.381517,3.85402844 C115.164455,3.85402844 114.454502,4.05687204 113.693839,4.86824645 L114.86019,6.03459716 C115.265877,5.57819905 115.570142,5.42606635 116.280095,5.42606635 C117.243602,5.42606635 117.649289,5.78104265 117.649289,6.59241706 L117.649289,6.94739336 L115.925118,6.94739336 C114.200948,6.94739336 113.389573,7.91090047 113.389573,9.07725118 C113.389573,9.73649289 113.592417,10.3450237 113.998104,10.7507109 C114.454502,11.207109 115.063033,11.4099526 115.874408,11.4099526 C116.736493,11.4099526 117.192891,11.207109 117.7,10.7 L117.7,11.3592417 L119.525592,11.3592417 L119.525592,11.3592417 Z" id="Shape"></path>
                <path d="M125.357346,7.65734597 C125.357346,8.87440758 125.205213,9.78720379 124.089573,9.78720379 C122.973934,9.78720379 122.821801,8.87440758 122.821801,7.65734597 C122.821801,6.44028436 122.973934,5.52748815 124.089573,5.52748815 C125.205213,5.52748815 125.357346,6.44028436 125.357346,7.65734597 L125.357346,7.65734597 Z M127.182938,7.65734597 C127.182938,6.54170616 127.182938,5.27393365 126.422275,4.56398104 C126.016588,4.15829384 125.357346,3.90473934 124.596682,3.90473934 C123.836019,3.90473934 123.278199,4.10758294 122.77109,4.66540284 L122.77109,3.95545024 L120.996209,3.95545024 L120.996209,14.0469194 L122.821801,14.0469194 L122.821801,10.7 C123.32891,11.2578199 123.836019,11.4606635 124.596682,11.4606635 C125.306635,11.4606635 125.965877,11.207109 126.422275,10.8014218 C127.182938,10.0407583 127.182938,8.77298578 127.182938,7.65734597 L127.182938,7.65734597 Z" id="Shape"></path>
                <path d="M132.710427,7.65734597 C132.710427,8.41800948 132.659716,9.07725118 132.304739,9.48293839 C132.101896,9.68578199 131.79763,9.78720379 131.442654,9.78720379 C131.087678,9.78720379 130.783412,9.68578199 130.580569,9.48293839 C130.174882,9.07725118 130.174882,8.46872038 130.174882,7.65734597 C130.174882,6.89668246 130.225592,6.23744076 130.580569,5.88246445 C130.783412,5.67962085 131.087678,5.57819905 131.442654,5.57819905 C131.79763,5.57819905 132.101896,5.67962085 132.304739,5.88246445 C132.659716,6.23744076 132.710427,6.89668246 132.710427,7.65734597 L132.710427,7.65734597 Z M134.536019,7.65734597 C134.536019,6.33886256 134.383886,5.47677725 133.673934,4.76682464 C133.217536,4.25971564 132.456872,3.85402844 131.391943,3.85402844 C130.276303,3.85402844 129.566351,4.25971564 129.109953,4.76682464 C128.450711,5.47677725 128.247867,6.28815166 128.247867,7.65734597 C128.247867,9.02654028 128.4,9.83791469 129.109953,10.5478673 C129.566351,11.0549763 130.327014,11.4606635 131.391943,11.4606635 C132.507583,11.4606635 133.217536,11.0549763 133.673934,10.5478673 C134.383886,9.83791469 134.536019,9.02654028 134.536019,7.65734597 L134.536019,7.65734597 Z" id="Shape"></path>
                <path d="M145.692417,6.99810427 L142.903318,6.99810427 C142.903318,6.69383886 142.954028,6.49099526 143.05545,6.18672986 C143.258294,5.73033175 143.663981,5.42606635 144.272512,5.42606635 C144.881043,5.42606635 145.28673,5.73033175 145.489573,6.18672986 C145.641706,6.44028436 145.641706,6.64312796 145.692417,6.99810427 L145.692417,6.99810427 Z M147.518009,8.21516588 L147.518009,7.40379147 C147.518009,5.37535545 146.351659,3.85402844 144.272512,3.85402844 C142.345498,3.85402844 141.027014,5.22322275 141.027014,7.60663507 C141.027014,10.5985782 142.700474,11.4099526 144.424645,11.4099526 C145.743128,11.4099526 146.503791,11.0042654 147.213744,10.2436019 L146.098104,9.12796209 C145.641706,9.58436019 145.236019,9.83791469 144.424645,9.83791469 C143.410427,9.83791469 142.801896,9.12796209 142.801896,8.21516588 L147.518009,8.21516588 L147.518009,8.21516588 Z M141.179147,4.56398104 C140.672038,4.05687204 140.164929,3.85402844 139.454976,3.85402844 C138.643602,3.85402844 137.933649,4.20900474 137.578673,4.66540284 L137.578673,3.95545024 L135.753081,3.95545024 L135.753081,11.3592417 L137.578673,11.3592417 L137.578673,6.89668246 C137.578673,5.98388626 138.187204,5.52748815 138.795735,5.52748815 C139.252133,5.52748815 139.505687,5.67962085 139.759242,5.98388626 L141.179147,4.56398104 L141.179147,4.56398104 Z" id="Shape"></path>
            </g>
        </g>
    </g>
</svg>